<?xml version="1.0" encoding="UTF-8" standalone="no"?>
<!DOCTYPE svg PUBLIC "-//W3C//DTD SVG 1.1//EN" "http://www.w3.org/Graphics/SVG/1.1/DTD/svg11.dtd">
<svg version="1.1" xmlns="http://www.w3.org/2000/svg" xmlns:xlink="http://www.w3.org/1999/xlink" preserveAspectRatio="xMidYMid meet" viewBox="0 0 150 150" width="150" height="150"><defs><path d="M76.38 3.26L15.07 38.99L14.91 110.73L76.06 146.74L137.37 111.01L137.53 39.27L76.38 3.26Z" id="b1gmRIpSTj"></path><path d="M54.9 47.2C58.03 49.2 58.94 53.36 56.91 56.48C54.66 59.93 51.58 64.65 49.33 68.11C47.29 71.24 43.11 72.14 39.95 70.14C36.45 67.91 31.62 64.84 28.12 62.61C24.99 60.62 24.08 56.45 26.11 53.34C28.36 49.88 31.44 45.17 33.69 41.71C35.73 38.58 39.91 37.67 43.07 39.68C46.57 41.91 51.4 44.98 54.9 47.2Z" id="asnmpiu66"></path><path d="M90.03 41.92C90.03 45.63 87.02 48.64 83.31 48.64C79.13 48.64 73.31 48.64 69.13 48.64C65.42 48.64 62.41 45.63 62.41 41.92C62.41 37.81 62.41 32.2 62.41 28.09C62.41 24.38 65.42 21.37 69.13 21.37C73.31 21.37 79.13 21.37 83.31 21.37C87.02 21.37 90.03 24.38 90.03 28.09C90.03 32.2 90.03 37.81 90.03 41.92Z" id="g1D6dfISi"></path><path d="M55.32 90.88C58.36 93.02 59.07 97.23 56.9 100.24C54.49 103.59 51.2 108.16 48.79 111.52C46.61 114.55 42.39 115.26 39.32 113.12C35.93 110.73 31.26 107.45 27.87 105.07C24.82 102.94 24.11 98.73 26.28 95.71C28.69 92.36 31.99 87.79 34.4 84.44C36.58 81.4 40.8 80.69 43.86 82.84C47.26 85.22 51.93 88.5 55.32 90.88Z" id="a2xg0KTEik"></path><path d="M99.18 102.26C96.05 100.26 95.15 96.1 97.18 92.98C99.43 89.53 102.5 84.81 104.76 81.35C106.8 78.22 110.98 77.32 114.13 79.32C117.64 81.55 122.46 84.62 125.97 86.85C129.1 88.84 130 93.01 127.98 96.12C125.72 99.58 122.65 104.29 120.39 107.75C118.35 110.88 114.17 111.79 111.02 109.78C107.51 107.55 102.69 104.48 99.18 102.26Z" id="a2qf9Mvsmu"></path><path d="M64.06 107.54C64.06 103.83 67.07 100.82 70.78 100.82C74.96 100.82 80.77 100.82 84.95 100.82C88.66 100.82 91.67 103.83 91.67 107.54C91.67 111.65 91.67 117.26 91.67 121.37C91.67 125.08 88.66 128.09 84.95 128.09C80.77 128.09 74.96 128.09 70.78 128.09C67.07 128.09 64.06 125.08 64.06 121.37C64.06 117.26 64.06 111.65 64.06 107.54Z" id="a24pQFpbkh"></path><path d="M98.76 58.58C95.72 56.44 95.01 52.23 97.18 49.22C99.59 45.87 102.88 41.3 105.29 37.94C107.48 34.91 111.7 34.2 114.76 36.34C118.16 38.73 122.82 42.01 126.22 44.39C129.26 46.52 129.97 50.73 127.8 53.75C125.39 57.1 122.1 61.67 119.69 65.02C117.5 68.06 113.28 68.77 110.22 66.62C106.83 64.24 102.16 60.96 98.76 58.58Z" id="b2YFovGAzz"></path><path d="M53.04 56.29C53.04 61.85 48.53 66.35 42.97 66.35C37.42 66.35 32.91 61.85 32.91 56.29C32.91 50.74 37.42 46.23 42.97 46.23C48.53 46.23 53.04 50.74 53.04 56.29Z" id="h8mK7KDkPb"></path><path d="M86.28 36.78C86.28 42.33 81.77 46.84 76.22 46.84C70.67 46.84 66.16 42.33 66.16 36.78C66.16 31.23 70.67 26.72 76.22 26.72C81.77 26.72 86.28 31.23 86.28 36.78Z" id="c4TZpjlx1Z"></path><path d="M53.04 97.98C53.04 103.53 48.53 108.04 42.97 108.04C37.42 108.04 32.91 103.53 32.91 97.98C32.91 92.42 37.42 87.92 42.97 87.92C48.53 87.92 53.04 92.42 53.04 97.98Z" id="b3CJcihF7B"></path><path d="M88.04 112.86C88.04 118.41 83.53 122.92 77.97 122.92C72.42 122.92 67.91 118.41 67.91 112.86C67.91 107.3 72.42 102.79 77.97 102.79C83.53 102.79 88.04 107.3 88.04 112.86Z" id="eq6C5CDiT"></path><path d="M121.82 94.2C121.82 99.75 117.31 104.26 111.75 104.26C106.2 104.26 101.69 99.75 101.69 94.2C101.69 88.64 106.2 84.14 111.75 84.14C117.31 84.14 121.82 88.64 121.82 94.2Z" id="bhY3NUZWq"></path><path d="M121.82 52.37C121.82 57.92 117.31 62.43 111.75 62.43C106.2 62.43 101.69 57.92 101.69 52.37C101.69 46.81 106.2 42.31 111.75 42.31C117.31 42.31 121.82 46.81 121.82 52.37Z" id="b3EB3Pm4Kq"></path><path d="M76.27 58.74L62.51 66.87L62.51 83.13L76.27 91.26L90.03 83.13L90.03 66.87L76.27 58.74Z" id="aOwTiuXNZ"></path></defs><g><g><g><use xlink:href="#b1gmRIpSTj" opacity="1" fill="#3cb92e" fill-opacity="1"></use></g><g><use xlink:href="#asnmpiu66" opacity="1" fill="#2e9000" fill-opacity="1"></use></g><g><use xlink:href="#g1D6dfISi" opacity="1" fill="#2e9000" fill-opacity="1"></use></g><g><use xlink:href="#a2xg0KTEik" opacity="1" fill="#2e9000" fill-opacity="1"></use></g><g><g><use xlink:href="#a2qf9Mvsmu" opacity="1" fill="#2e9000" fill-opacity="1"></use></g><g><use xlink:href="#a24pQFpbkh" opacity="1" fill="#2e9000" fill-opacity="1"></use></g><g><use xlink:href="#b2YFovGAzz" opacity="1" fill="#2e9000" fill-opacity="1"></use></g></g><g><use xlink:href="#h8mK7KDkPb" opacity="1" fill="#fff299" fill-opacity="1"></use></g><g><use xlink:href="#c4TZpjlx1Z" opacity="1" fill="#fff299" fill-opacity="1"></use></g><g><use xlink:href="#b3CJcihF7B" opacity="1" fill="#fff299" fill-opacity="1"></use></g><g><use xlink:href="#eq6C5CDiT" opacity="1" fill="#fff299" fill-opacity="1"></use></g><g><use xlink:href="#bhY3NUZWq" opacity="1" fill="#fff299" fill-opacity="1"></use></g><g><use xlink:href="#b3EB3Pm4Kq" opacity="1" fill="#fff299" fill-opacity="1"></use></g><g><use xlink:href="#aOwTiuXNZ" opacity="1" fill="#f6f100" fill-opacity="1"></use></g></g></g></svg>