<?xml version="1.0" encoding="UTF-8" standalone="no"?>
<!DOCTYPE svg PUBLIC "-//W3C//DTD SVG 1.1//EN" "http://www.w3.org/Graphics/SVG/1.1/DTD/svg11.dtd">
<svg version="1.1" xmlns="http://www.w3.org/2000/svg" xmlns:xlink="http://www.w3.org/1999/xlink" preserveAspectRatio="xMidYMid meet" viewBox="0 0 100 100" width="100" height="100"><defs><path d="M87.57 8.26C91.29 8.26 94.3 11.27 94.3 14.98C94.3 30.94 94.3 72.07 94.3 88.03C94.3 91.74 91.29 94.75 87.57 94.75C71.62 94.75 30.48 94.75 14.53 94.75C10.82 94.75 7.81 91.74 7.81 88.03C7.81 72.07 7.81 30.94 7.81 14.98C7.81 11.27 10.82 8.26 14.53 8.26C30.48 8.26 71.62 8.26 87.57 8.26Z" id="b9zZhTenG7"></path><path d="M19.86 47.19L82.24 47.19L82.24 55.82L19.86 55.82L19.86 47.19Z" id="f68Tymr2U"></path></defs><g><g><g><use xlink:href="#b9zZhTenG7" opacity="1" fill="#888888" fill-opacity="1"></use></g><g><use xlink:href="#f68Tymr2U" opacity="1" fill="#ffffff" fill-opacity="1"></use></g></g></g></svg>