<?xml version="1.0" encoding="UTF-8" standalone="no"?>
<!DOCTYPE svg PUBLIC "-//W3C//DTD SVG 1.1//EN" "http://www.w3.org/Graphics/SVG/1.1/DTD/svg11.dtd">
<svg version="1.1" xmlns="http://www.w3.org/2000/svg" xmlns:xlink="http://www.w3.org/1999/xlink" preserveAspectRatio="xMidYMid meet" viewBox="0 0 100 100" width="100" height="100"><defs><path d="M85.6 9.26C89.53 9.26 92.71 12.45 92.71 16.38C92.71 31.68 92.71 70.48 92.71 85.78C92.71 89.71 89.53 92.89 85.6 92.89C70.3 92.89 31.5 92.89 16.19 92.89C12.27 92.89 9.08 89.71 9.08 85.78C9.08 70.48 9.08 31.68 9.08 16.38C9.08 12.45 12.27 9.26 16.19 9.26C31.5 9.26 70.3 9.26 85.6 9.26Z" id="cbiyR5FhA"></path><path d="M56.81 30.62L56.84 30.62L56.87 30.62L56.9 30.63L56.93 30.64L56.96 30.64L56.99 30.65L57.01 30.66L57.04 30.67L57.07 30.68L57.09 30.69L57.12 30.71L57.14 30.72L57.16 30.74L57.19 30.75L57.21 30.77L57.23 30.79L57.25 30.81L57.27 30.83L57.29 30.85L57.31 30.87L57.33 30.89L57.35 30.91L57.36 30.93L57.38 30.96L57.39 30.98L57.4 31.01L57.42 31.03L57.43 31.06L57.44 31.08L57.45 31.11L57.46 31.14L57.47 31.16L57.47 31.19L57.48 31.22L57.48 31.25L57.48 31.28L57.49 31.31L57.49 31.34L57.49 45.82L72.13 45.82L72.16 45.82L72.19 45.82L72.22 45.82L72.25 45.83L72.28 45.83L72.31 45.84L72.33 45.85L72.36 45.86L72.39 45.87L72.42 45.88L72.44 45.89L72.47 45.9L72.49 45.91L72.52 45.93L72.54 45.94L72.56 45.96L72.58 45.98L72.61 45.99L72.63 46.01L72.65 46.03L72.67 46.05L72.69 46.07L72.7 46.09L72.72 46.12L72.74 46.14L72.75 46.16L72.77 46.19L72.78 46.21L72.79 46.24L72.8 46.26L72.82 46.29L72.83 46.31L72.83 46.34L72.84 46.37L72.85 46.4L72.85 46.43L72.86 46.45L72.86 46.48L72.86 46.51L72.86 46.54L72.86 58.13L72.86 58.16L72.86 58.19L72.86 58.22L72.85 58.25L72.85 58.27L72.84 58.3L72.83 58.33L72.83 58.36L72.82 58.38L72.8 58.41L72.79 58.44L72.78 58.46L72.77 58.49L72.75 58.51L72.74 58.53L72.72 58.56L72.7 58.58L72.69 58.6L72.67 58.62L72.65 58.64L72.63 58.66L72.61 58.68L72.58 58.7L72.56 58.71L72.54 58.73L72.52 58.74L72.49 58.76L72.47 58.77L72.44 58.78L72.42 58.8L72.39 58.81L72.36 58.82L72.33 58.82L72.31 58.83L72.28 58.84L72.25 58.84L72.22 58.85L72.19 58.85L72.16 58.85L72.13 58.85L57.49 58.85L57.49 73.33L57.49 73.36L57.48 73.39L57.48 73.42L57.48 73.45L57.47 73.48L57.47 73.51L57.46 73.53L57.45 73.56L57.44 73.59L57.43 73.61L57.42 73.64L57.4 73.67L57.39 73.69L57.38 73.71L57.36 73.74L57.35 73.76L57.33 73.78L57.31 73.8L57.29 73.82L57.27 73.84L57.25 73.86L57.23 73.88L57.21 73.9L57.19 73.92L57.16 73.93L57.14 73.95L57.12 73.96L57.09 73.98L57.07 73.99L57.04 74L57.01 74.01L56.99 74.02L56.96 74.03L56.93 74.04L56.9 74.04L56.87 74.05L56.84 74.05L56.81 74.05L56.78 74.06L56.75 74.06L45.04 74.06L45.01 74.06L44.98 74.05L44.95 74.05L44.92 74.05L44.89 74.04L44.86 74.04L44.84 74.03L44.81 74.02L44.78 74.01L44.75 74L44.73 73.99L44.7 73.98L44.68 73.96L44.65 73.95L44.63 73.93L44.61 73.92L44.58 73.9L44.56 73.88L44.54 73.86L44.52 73.84L44.5 73.82L44.48 73.8L44.47 73.78L44.45 73.76L44.43 73.74L44.42 73.71L44.4 73.69L44.39 73.67L44.38 73.64L44.36 73.61L44.35 73.59L44.34 73.56L44.34 73.53L44.33 73.51L44.32 73.48L44.32 73.45L44.31 73.42L44.31 73.39L44.31 73.36L44.31 73.33L44.31 58.85L29.66 58.85L29.63 58.85L29.6 58.85L29.57 58.85L29.54 58.84L29.52 58.84L29.49 58.83L29.46 58.82L29.43 58.82L29.41 58.81L29.38 58.8L29.35 58.78L29.33 58.77L29.3 58.76L29.28 58.74L29.25 58.73L29.23 58.71L29.21 58.7L29.19 58.68L29.17 58.66L29.15 58.64L29.13 58.62L29.11 58.6L29.09 58.58L29.07 58.56L29.06 58.53L29.04 58.51L29.03 58.49L29.01 58.46L29 58.44L28.99 58.41L28.98 58.38L28.97 58.36L28.96 58.33L28.95 58.3L28.95 58.27L28.94 58.25L28.94 58.22L28.93 58.19L28.93 58.16L28.93 58.13L28.93 46.54L28.93 46.51L28.93 46.48L28.94 46.45L28.94 46.43L28.95 46.4L28.95 46.37L28.96 46.34L28.97 46.31L28.98 46.29L28.99 46.26L29 46.24L29.01 46.21L29.03 46.19L29.04 46.16L29.06 46.14L29.07 46.12L29.09 46.09L29.11 46.07L29.13 46.05L29.15 46.03L29.17 46.01L29.19 45.99L29.21 45.98L29.23 45.96L29.25 45.94L29.28 45.93L29.3 45.91L29.33 45.9L29.35 45.89L29.38 45.88L29.41 45.87L29.43 45.86L29.46 45.85L29.49 45.84L29.52 45.83L29.54 45.83L29.57 45.82L29.6 45.82L29.63 45.82L29.66 45.82L44.31 45.82L44.31 31.34L44.31 31.31L44.31 31.28L44.31 31.25L44.32 31.22L44.32 31.19L44.33 31.16L44.34 31.14L44.34 31.11L44.35 31.08L44.36 31.06L44.38 31.03L44.39 31.01L44.4 30.98L44.42 30.96L44.43 30.93L44.45 30.91L44.47 30.89L44.48 30.87L44.5 30.85L44.52 30.83L44.54 30.81L44.56 30.79L44.58 30.77L44.61 30.75L44.63 30.74L44.65 30.72L44.68 30.71L44.7 30.69L44.73 30.68L44.75 30.67L44.78 30.66L44.81 30.65L44.84 30.64L44.86 30.64L44.89 30.63L44.92 30.62L44.95 30.62L44.98 30.62L45.01 30.61L45.04 30.61L56.75 30.61L56.78 30.61L56.81 30.62Z" id="aNGK07WHn"></path></defs><g><g><g><g><use xlink:href="#cbiyR5FhA" opacity="1" fill="#888888" fill-opacity="1"></use></g><g><use xlink:href="#aNGK07WHn" opacity="1" fill="#ffffff" fill-opacity="1"></use></g></g></g></g></svg>