<?xml version="1.0" encoding="UTF-8" standalone="no"?>
<!DOCTYPE svg PUBLIC "-//W3C//DTD SVG 1.1//EN" "http://www.w3.org/Graphics/SVG/1.1/DTD/svg11.dtd">
<svg version="1.1" xmlns="http://www.w3.org/2000/svg" xmlns:xlink="http://www.w3.org/1999/xlink" preserveAspectRatio="xMidYMid meet" viewBox="0 0 150 150" width="150" height="150"><defs><path d="M40.99 69.83L40.9 70.13L40.83 70.44L40.77 70.76L40.73 71.08L40.7 71.41L40.7 71.74L40.7 75.63L40.7 75.97L40.73 76.29L40.77 76.61L40.83 76.93L40.9 77.24L40.99 77.55L41.09 77.85L41.2 78.14L41.33 78.42L41.47 78.7L41.63 78.97L41.8 79.23L41.97 79.49L42.17 79.73L42.37 79.96L42.58 80.19L42.8 80.4L43.04 80.6L43.28 80.79L43.53 80.97L43.79 81.14L44.06 81.29L44.34 81.44L44.63 81.56L44.92 81.68L45.22 81.78L45.52 81.87L45.83 81.94L46.15 82L46.47 82.04L46.8 82.06L47.13 82.07L74.26 82.07L57.02 146.4L56.16 146.17L56.16 146.17L51.79 127.88L47.43 109.59L34.5 123.24L21.57 136.9L20.71 136.67L38.88 68.87L41.11 69.47L41.09 69.53L41.09 69.53L40.99 69.83Z" id="c1j0e4Dmtb"></path><path d="M75.56 80.47L101.83 80.47L102.26 80.45L102.69 80.42L103.11 80.36L103.53 80.28L103.93 80.17L104.33 80.05L104.72 79.9L105.1 79.74L105.46 79.55L105.82 79.35L106.16 79.13L106.49 78.89L106.81 78.63L107.11 78.36L107.39 78.07L107.67 77.77L107.92 77.45L108.16 77.13L108.38 76.78L108.59 76.43L108.77 76.06L108.94 75.68L109.08 75.3L109.21 74.9L109.31 74.49L109.39 74.08L109.45 73.66L109.49 73.23L109.5 72.79L109.5 72.31L109.49 71.87L109.45 71.44L109.39 71.02L109.31 70.61L109.21 70.2L109.14 69.98L111.25 69.41L129.29 136.74L93.23 146.4L93.23 146.4L75.56 80.47ZM128.43 136.97L115.6 123.41L102.76 109.85L98.43 128.01L94.09 146.17L94.09 146.17L128.43 136.97Z" id="a2fpoibIiH"></path><path d="M101.9 12.34C106.38 12.34 110.02 15.97 110.02 20.46C110.02 32.39 110.02 60.07 110.02 72.01C110.02 76.49 106.38 80.13 101.9 80.13C89.97 80.13 62.28 80.13 50.35 80.13C45.86 80.13 42.23 76.49 42.23 72.01C42.23 60.07 42.23 32.39 42.23 20.46C42.23 15.97 45.86 12.34 50.35 12.34C62.28 12.34 89.97 12.34 101.9 12.34Z" id="beJi9nlvz"></path><path d="M105.08 9.57L105.4 9.6L105.71 9.65L106.01 9.71L106.32 9.77L106.62 9.85L106.91 9.94L107.2 10.05L107.48 10.16L107.76 10.28L108.03 10.42L108.29 10.56L108.55 10.72L108.81 10.88L109.05 11.05L109.29 11.24L109.52 11.43L109.75 11.63L109.96 11.83L110.17 12.05L110.37 12.27L110.56 12.5L110.74 12.74L110.92 12.99L111.08 13.24L111.23 13.5L111.38 13.77L111.51 14.04L111.64 14.32L111.75 14.6L111.85 14.89L111.94 15.18L112.02 15.48L112.09 15.78L112.15 16.09L112.19 16.4L112.22 16.71L112.24 17.03L112.25 17.35L112.25 75.11L112.24 75.43L112.22 75.75L112.19 76.06L112.15 76.37L112.09 76.68L112.02 76.98L111.94 77.28L111.85 77.58L111.75 77.86L111.64 78.15L111.51 78.42L111.38 78.7L111.23 78.96L111.08 79.22L110.92 79.47L110.74 79.72L110.56 79.96L110.37 80.19L110.17 80.41L109.96 80.63L109.75 80.84L109.52 81.04L109.29 81.23L109.05 81.41L108.81 81.58L108.55 81.75L108.29 81.9L108.03 82.04L107.76 82.18L107.48 82.3L107.2 82.42L106.91 82.52L106.62 82.61L106.32 82.69L106.01 82.76L105.71 82.81L105.4 82.86L105.08 82.89L104.76 82.91L104.44 82.92L46.69 82.92L46.37 82.91L46.05 82.89L45.73 82.86L45.42 82.81L45.11 82.76L44.81 82.69L44.51 82.61L44.22 82.52L43.93 82.42L43.65 82.3L43.37 82.18L43.1 82.04L42.83 81.9L42.57 81.75L42.32 81.58L42.08 81.41L41.84 81.23L41.61 81.04L41.38 80.84L41.17 80.63L40.96 80.41L40.76 80.19L40.57 79.96L40.39 79.72L40.21 79.47L40.05 79.22L39.89 78.96L39.75 78.7L39.62 78.42L39.49 78.15L39.38 77.86L39.28 77.58L39.19 77.28L39.11 76.98L39.04 76.68L38.98 76.37L38.94 76.06L38.9 75.75L38.89 75.43L38.88 75.11L38.88 17.35L38.89 17.03L38.9 16.71L38.94 16.4L38.98 16.09L39.04 15.78L39.11 15.48L39.19 15.18L39.28 14.89L39.38 14.6L39.49 14.32L39.62 14.04L39.75 13.77L39.89 13.5L40.05 13.24L40.21 12.99L40.39 12.74L40.57 12.5L40.76 12.27L40.96 12.05L41.17 11.83L41.38 11.63L41.61 11.43L41.84 11.24L42.08 11.05L42.32 10.88L42.57 10.72L42.83 10.56L43.1 10.42L43.37 10.28L43.65 10.16L43.93 10.05L44.22 9.94L44.51 9.85L44.81 9.77L45.11 9.71L45.42 9.65L45.73 9.6L46.05 9.57L46.37 9.55L46.69 9.55L104.44 9.55L104.76 9.55L105.08 9.57ZM52.57 13.78L52.16 13.8L51.76 13.84L51.37 13.9L50.98 13.97L50.59 14.06L50.21 14.16L49.84 14.27L49.47 14.4L49.11 14.55L48.76 14.7L48.42 14.87L48.08 15.06L47.75 15.25L47.43 15.46L47.12 15.68L46.81 15.91L46.52 16.16L46.23 16.41L45.96 16.67L45.7 16.95L45.44 17.23L45.2 17.53L44.97 17.83L44.75 18.14L44.54 18.46L44.34 18.79L44.16 19.13L43.99 19.48L43.83 19.83L43.69 20.19L43.56 20.55L43.44 20.93L43.34 21.31L43.25 21.69L43.18 22.08L43.13 22.48L43.09 22.88L43.06 23.28L43.05 23.69L43.05 68.86L43.06 69.27L43.09 69.68L43.13 70.08L43.18 70.47L43.25 70.86L43.34 71.25L43.44 71.63L43.56 72L43.69 72.37L43.83 72.73L43.99 73.08L44.16 73.43L44.34 73.76L44.54 74.09L44.75 74.41L44.97 74.73L45.2 75.03L45.44 75.32L45.7 75.61L45.96 75.88L46.23 76.15L46.52 76.4L46.81 76.64L47.12 76.87L47.43 77.09L47.75 77.3L48.08 77.5L48.42 77.68L48.76 77.85L49.11 78.01L49.47 78.15L49.84 78.28L50.21 78.4L50.59 78.5L50.98 78.59L51.37 78.66L51.76 78.72L52.16 78.76L52.57 78.78L52.98 78.79L98.15 78.79L98.56 78.78L98.96 78.76L99.36 78.72L99.76 78.66L100.15 78.59L100.54 78.5L100.91 78.4L101.29 78.28L101.65 78.15L102.01 78.01L102.37 77.85L102.71 77.68L103.05 77.5L103.38 77.3L103.7 77.09L104.01 76.87L104.32 76.64L104.61 76.4L104.89 76.15L105.17 75.88L105.43 75.61L105.69 75.32L105.93 75.03L106.16 74.73L106.38 74.41L106.59 74.09L106.78 73.76L106.97 73.43L107.14 73.08L107.29 72.73L107.44 72.37L107.57 72L107.68 71.63L107.79 71.25L107.87 70.86L107.94 70.47L108 70.08L108.04 69.68L108.07 69.27L108.07 68.86L108.07 23.69L108.07 23.28L108.04 22.88L108 22.48L107.94 22.08L107.87 21.69L107.79 21.31L107.68 20.93L107.57 20.55L107.44 20.19L107.29 19.83L107.14 19.48L106.97 19.13L106.78 18.79L106.59 18.46L106.38 18.14L106.16 17.83L105.93 17.53L105.69 17.23L105.43 16.95L105.17 16.67L104.89 16.41L104.61 16.16L104.32 15.91L104.01 15.68L103.7 15.46L103.38 15.25L103.05 15.06L102.71 14.87L102.37 14.7L102.01 14.55L101.65 14.4L101.29 14.27L100.91 14.16L100.54 14.06L100.15 13.97L99.76 13.9L99.36 13.84L98.96 13.8L98.56 13.78L98.15 13.77L52.98 13.77L52.57 13.78ZM97.39 41.08L86.48 52.26L89.05 68.06L75.56 60.6L62.08 68.06L64.65 52.26L53.74 41.08L68.82 38.77L75.56 24.41L82.31 38.77L97.39 41.08Z" id="c4d96lw6Q"></path></defs><g><g><g><g><use xlink:href="#c1j0e4Dmtb" opacity="1" fill="#db4532" fill-opacity="1"></use></g><g><use xlink:href="#a2fpoibIiH" opacity="1" fill="#db4532" fill-opacity="1"></use></g><g><use xlink:href="#beJi9nlvz" opacity="1" fill="#ffffff" fill-opacity="1"></use></g><g><use xlink:href="#c4d96lw6Q" opacity="1" fill="#ffcc00" fill-opacity="1"></use></g></g></g></g></svg>